<svg xmlns="http://www.w3.org/2000/svg" xmlns:xlink="http://www.w3.org/1999/xlink" id="_x30_" x="0" y="0" version="1.1" viewBox="0 0 576 792" xml:space="preserve" style="enable-background:new 0 0 576 792"><style type="text/css">.st0{fill:none;stroke:#000;stroke-width:.7087;stroke-linecap:round;stroke-linejoin:round;stroke-miterlimit:10}</style><g id="CIRCLE"><path d="M251.3,338.6c0-2.3,1.9-4.3,4.3-4.3c2.3,0,4.3,1.9,4.3,4.3s-1.9,4.3-4.3,4.3 C253.2,342.9,251.3,341,251.3,338.6L251.3,338.6z" class="st0"/></g><g id="CIRCLE_1_"><path d="M317.2,452.4c0-2.3,1.9-4.3,4.3-4.3s4.3,1.9,4.3,4.3s-1.9,4.3-4.3,4.3S317.2,454.7,317.2,452.4L317.2,452.4z" class="st0"/></g><g id="CIRCLE_2_"><path d="M233.8,353.4c0-2.3,1.9-4.3,4.3-4.3s4.3,1.9,4.3,4.3s-1.9,4.3-4.3,4.3S233.8,355.7,233.8,353.4L233.8,353.4z" class="st0"/></g><g id="CIRCLE_3_"><path d="M222.3,373c0-2.3,1.9-4.3,4.3-4.3s4.3,1.9,4.3,4.3s-1.9,4.3-4.3,4.3S222.3,375.4,222.3,373L222.3,373z" class="st0"/></g><g id="CIRCLE_4_"><path d="M346.2,418c0-2.3,1.9-4.3,4.3-4.3s4.3,1.9,4.3,4.3s-1.9,4.3-4.3,4.3S346.2,420.3,346.2,418L346.2,418z" class="st0"/></g><g id="CIRCLE_5_"><path d="M334.6,437.6c0-2.3,1.9-4.3,4.3-4.3s4.3,1.9,4.3,4.3s-1.9,4.3-4.3,4.3S334.6,440,334.6,437.6L334.6,437.6z" class="st0"/></g><g id="CIRCLE_6_"><path d="M330,288.6c0-2.3,1.9-4.3,4.3-4.3s4.3,1.9,4.3,4.3s-1.9,4.3-4.3,4.3S330,290.9,330,288.6L330,288.6z" class="st0"/></g><g id="CIRCLE_7_"><path d="M330,502.4c0-2.3,1.9-4.3,4.3-4.3s4.3,1.9,4.3,4.3s-1.9,4.3-4.3,4.3S330,504.8,330,502.4L330,502.4z" class="st0"/></g><g id="CIRCLE_8_"><path d="M238.5,502.4c0-2.3,1.9-4.3,4.3-4.3s4.3,1.9,4.3,4.3s-1.9,4.3-4.3,4.3S238.5,504.8,238.5,502.4L238.5,502.4z" class="st0"/></g><g id="CIRCLE_9_"><path d="M391.2,441.2c0-2.3,1.9-4.3,4.3-4.3s4.3,1.9,4.3,4.3s-1.9,4.3-4.3,4.3S391.2,443.6,391.2,441.2L391.2,441.2z" class="st0"/></g><g id="CIRCLE_10_"><path d="M238.5,288.6c0-2.3,1.9-4.3,4.3-4.3s4.3,1.9,4.3,4.3s-1.9,4.3-4.3,4.3S238.5,290.9,238.5,288.6L238.5,288.6z" class="st0"/></g><g id="CIRCLE_11_"><path d="M391.2,349.8c0-2.3,1.9-4.3,4.3-4.3s4.3,1.9,4.3,4.3s-1.9,4.3-4.3,4.3S391.2,352.1,391.2,349.8L391.2,349.8z" class="st0"/></g><g id="CIRCLE_12_"><path d="M177.3,441.2c0-2.3,1.9-4.3,4.3-4.3s4.3,1.9,4.3,4.3s-1.9,4.3-4.3,4.3S177.3,443.6,177.3,441.2L177.3,441.2z" class="st0"/></g><g id="CIRCLE_13_"><path d="M177.3,349.8c0-2.3,1.9-4.3,4.3-4.3s4.3,1.9,4.3,4.3s-1.9,4.3-4.3,4.3S177.3,352.1,177.3,349.8L177.3,349.8z" class="st0"/></g><g id="LWPOLYLINE"><path d="M339.9,508.6c-1.3,1.3-3.1,2.1-5,2.1h-92.8c-1.9,0-3.7-0.7-5-2.1l-61.7-61.7c-1.3-1.3-2.1-3.1-2.1-5v-92.8 c0-1.9,0.7-3.7,2.1-5l61.7-61.7c1.3-1.3,3.1-2.1,5-2.1h92.8c1.9,0,3.7,0.7,5,2.1l61.7,61.7c1.3,1.3,2.1,3.1,2.1,5v92.8 c0,1.9-0.7,3.7-2.1,5L339.9,508.6z" class="st0"/></g></svg>